<?xml version="1.0" encoding="UTF-8" standalone="no"?>
<!DOCTYPE svg PUBLIC "-//W3C//DTD SVG 1.1//EN" "http://www.w3.org/Graphics/SVG/1.1/DTD/svg11.dtd">
<svg width="100%" height="100%" viewBox="0 0 2834 563" version="1.1" xmlns="http://www.w3.org/2000/svg" xmlns:xlink="http://www.w3.org/1999/xlink" xml:space="preserve" xmlns:serif="http://www.serif.com/" style="fill-rule:evenodd;clip-rule:evenodd;stroke-linejoin:round;stroke-miterlimit:2;">
    <g transform="matrix(4.16667,0,0,4.16667,0,0)">
        <g id="Layer1">
            <path d="M5.413,123.396L615.986,123.445C645.077,119.653 664.126,103.602 669.3,70.612L669.256,6.945L57.114,6.945C26.606,7.235 5.387,36.784 5.387,62.781C5.387,80.284 5.413,99.607 5.413,123.396ZM206.106,98.353C203.573,98.353 201.085,98.128 198.64,97.679C196.195,97.23 193.839,96.571 191.571,95.703C189.303,94.835 187.168,93.817 185.165,92.65C183.163,91.482 181.366,90.18 179.775,88.743L192.587,74.553C194.06,76.169 196.019,77.606 198.463,78.864C200.908,80.121 203.426,80.75 206.018,80.75C207.196,80.75 208.271,80.54 209.243,80.121C210.215,79.702 210.701,78.924 210.701,77.786C210.701,77.187 210.539,76.678 210.215,76.259C209.891,75.84 209.317,75.406 208.492,74.957C207.667,74.508 206.533,74.014 205.09,73.475C203.647,72.936 201.836,72.308 199.656,71.589C197.536,70.871 195.503,70.017 193.559,69.03C191.616,68.042 189.893,66.829 188.39,65.392C186.888,63.955 185.695,62.234 184.812,60.228C183.928,58.222 183.487,55.812 183.487,52.998C183.487,49.047 184.282,45.694 185.872,42.94C187.463,40.185 189.51,37.925 192.013,36.159C194.517,34.393 197.329,33.12 200.451,32.342C203.573,31.564 206.666,31.174 209.729,31.174C213.852,31.174 218.049,31.983 222.32,33.599C226.591,35.216 230.346,37.551 233.586,40.604L220.509,54.166C219.095,52.37 217.357,51.008 215.296,50.079C213.234,49.151 211.378,48.687 209.729,48.687C208.197,48.687 206.96,48.912 206.018,49.361C205.075,49.81 204.604,50.544 204.604,51.561C204.604,52.519 205.09,53.238 206.062,53.717C207.034,54.196 208.61,54.795 210.789,55.513C213.028,56.232 215.384,57.07 217.858,58.028C220.332,58.986 222.615,60.228 224.706,61.755C226.797,63.282 228.52,65.153 229.875,67.368C231.23,69.583 231.907,72.338 231.907,75.631C231.907,79.463 231.156,82.801 229.654,85.645C228.152,88.489 226.178,90.854 223.734,92.74C221.289,94.626 218.535,96.033 215.472,96.961C212.409,97.889 209.287,98.353 206.106,98.353ZM387.949,64.404C387.949,59.315 388.832,54.72 390.599,50.618C392.366,46.517 394.796,43.029 397.889,40.155C400.981,37.281 404.648,35.066 408.89,33.509C413.131,31.953 417.725,31.174 422.673,31.174C427.622,31.174 432.216,31.953 436.457,33.509C440.699,35.066 444.38,37.281 447.502,40.155C450.624,43.029 453.069,46.517 454.836,50.618C456.603,54.72 457.487,59.315 457.487,64.404C457.487,69.494 456.603,74.134 454.836,78.325C453.069,82.516 450.624,86.094 447.502,89.057C444.38,92.021 440.699,94.311 436.457,95.928C432.216,97.544 427.622,98.353 422.673,98.353C417.725,98.353 413.131,97.544 408.89,95.928C404.648,94.311 400.981,92.021 397.889,89.057C394.796,86.094 392.366,82.516 390.599,78.325C388.832,74.134 387.949,69.494 387.949,64.404ZM86.91,96.557L74.894,73.834L74.275,73.834L74.275,96.557L53.953,96.557L53.953,32.971L80.902,32.971C83.965,32.971 87.014,33.285 90.047,33.914C93.081,34.542 95.791,35.65 98.176,37.237C100.562,38.823 102.491,40.949 103.964,43.613C105.436,46.278 106.173,49.615 106.173,53.627C106.173,57.519 105.23,60.947 103.345,63.91C101.46,66.874 98.751,69.164 95.216,70.781L110.307,95.237L134.447,32.971L156.802,32.971L181.189,96.557L158.304,96.557L155.035,87.216L135.154,87.216L132.062,96.557L86.91,96.557ZM307.542,32.971L328.748,32.971L328.748,96.557L307.542,96.557L307.542,32.971ZM371.602,96.557L350.573,96.557L350.573,51.023L335.198,51.023L335.198,32.971L386.977,32.971L386.977,51.023L371.602,51.023L371.602,96.557ZM260.8,71.23L260.624,71.23L260.624,96.557L240.124,96.557L240.124,32.971L260.535,32.971L260.535,56.411L260.712,56.411L277.412,32.971L302.152,32.971L278.649,62.069L303.301,96.557L277.5,96.557L260.8,71.23ZM572.795,32.971L595.15,32.971L619.537,96.557L596.652,96.557L593.382,87.216L573.502,87.216L570.409,96.557L548.143,96.557L572.795,32.971ZM484.966,60.632L485.938,96.557L466.323,96.557L466.323,32.971L493.802,32.971L505.112,67.188L505.554,67.188L515.362,32.971L543.725,32.971L543.725,96.557L523.314,96.557L523.933,60.812L523.402,60.722L511.739,96.557L496.895,96.557L485.408,60.632L484.966,60.632ZM410.303,64.404C410.303,66.5 410.613,68.416 411.231,70.152C411.85,71.889 412.704,73.385 413.793,74.643C414.883,75.9 416.194,76.873 417.725,77.562C419.257,78.25 420.906,78.594 422.673,78.594C424.441,78.594 426.075,78.25 427.577,77.562C429.079,76.873 430.39,75.9 431.509,74.643C432.629,73.385 433.497,71.889 434.116,70.152C434.734,68.416 435.044,66.5 435.044,64.404C435.044,62.369 434.734,60.498 434.116,58.791C433.497,57.085 432.629,55.648 431.509,54.48C430.39,53.313 429.079,52.4 427.577,51.741C426.075,51.082 424.441,50.753 422.673,50.753C420.906,50.753 419.257,51.082 417.725,51.741C416.194,52.4 414.883,53.313 413.793,54.48C412.704,55.648 411.85,57.085 411.231,58.791C410.613,60.498 410.303,62.369 410.303,64.404ZM583.663,55.154L578.538,70.871L588.699,70.871L583.663,55.154ZM145.316,55.154L140.191,70.871L150.352,70.871L145.316,55.154ZM74.098,59.824L78.251,59.824C78.958,59.824 79.739,59.764 80.593,59.644C81.447,59.525 82.242,59.27 82.978,58.881C83.715,58.492 84.333,57.953 84.834,57.264C85.335,56.576 85.585,55.663 85.585,54.525C85.585,53.388 85.379,52.489 84.967,51.831C84.554,51.172 84.024,50.678 83.376,50.349C82.728,50.02 82.021,49.81 81.256,49.72C80.49,49.63 79.783,49.586 79.135,49.586L74.098,49.586L74.098,59.824Z"/>
        </g>
    </g>
</svg>
