<svg width="2834" height="563" xmlns="http://www.w3.org/2000/svg" clip-rule="evenodd" xml:space="preserve" version="1.1">

 <g>
  <title>Layer 1</title>
  <g id="svg_1" transform="matrix(4.16667 0 0 4.16667 0 0)">
   <g id="Layer1">
    <path fill="#ffffff" id="svg_2" d="m5.413,123.396l610.573,0.049c29.091,-3.792 48.14,-19.843 53.314,-52.833l-0.044,-63.667l-612.142,0c-30.508,0.29 -51.727,29.839 -51.727,55.836c0,17.503 0.026,36.826 0.026,60.615zm200.693,-25.043c-2.533,0 -5.021,-0.225 -7.466,-0.674c-2.445,-0.449 -4.801,-1.108 -7.069,-1.976c-2.268,-0.868 -4.403,-1.886 -6.406,-3.053c-2.002,-1.168 -3.799,-2.47 -5.39,-3.907l12.812,-14.19c1.473,1.616 3.432,3.053 5.876,4.311c2.445,1.257 4.963,1.886 7.555,1.886c1.178,0 2.253,-0.21 3.225,-0.629c0.972,-0.419 1.458,-1.197 1.458,-2.335c0,-0.599 -0.162,-1.108 -0.486,-1.527c-0.324,-0.419 -0.898,-0.853 -1.723,-1.302c-0.825,-0.449 -1.959,-0.943 -3.402,-1.482c-1.443,-0.539 -3.254,-1.167 -5.434,-1.886c-2.12,-0.718 -4.153,-1.572 -6.097,-2.559c-1.943,-0.988 -3.666,-2.201 -5.169,-3.638c-1.502,-1.437 -2.695,-3.158 -3.578,-5.164c-0.884,-2.006 -1.325,-4.416 -1.325,-7.23c0,-3.951 0.795,-7.304 2.385,-10.058c1.591,-2.755 3.638,-5.015 6.141,-6.781c2.504,-1.766 5.316,-3.039 8.438,-3.817c3.122,-0.778 6.215,-1.168 9.278,-1.168c4.123,0 8.32,0.809 12.591,2.425c4.271,1.617 8.026,3.952 11.266,7.005l-13.077,13.562c-1.414,-1.796 -3.152,-3.158 -5.213,-4.087c-2.062,-0.928 -3.918,-1.392 -5.567,-1.392c-1.532,0 -2.769,0.225 -3.711,0.674c-0.943,0.449 -1.414,1.183 -1.414,2.2c0,0.958 0.486,1.677 1.458,2.156c0.972,0.479 2.548,1.078 4.727,1.796c2.239,0.719 4.595,1.557 7.069,2.515c2.474,0.958 4.757,2.2 6.848,3.727c2.091,1.527 3.814,3.398 5.169,5.613c1.355,2.215 2.032,4.97 2.032,8.263c0,3.832 -0.751,7.17 -2.253,10.014c-1.502,2.844 -3.476,5.209 -5.92,7.095c-2.445,1.886 -5.199,3.293 -8.262,4.221c-3.063,0.928 -6.185,1.392 -9.366,1.392zm181.843,-33.949c0,-5.089 0.883,-9.684 2.65,-13.786c1.767,-4.101 4.197,-7.589 7.29,-10.463c3.092,-2.874 6.759,-5.089 11.001,-6.646c4.241,-1.556 8.835,-2.335 13.783,-2.335c4.949,0 9.543,0.779 13.784,2.335c4.242,1.557 7.923,3.772 11.045,6.646c3.122,2.874 5.567,6.362 7.334,10.463c1.767,4.102 2.651,8.697 2.651,13.786c0,5.09 -0.884,9.73 -2.651,13.921c-1.767,4.191 -4.212,7.769 -7.334,10.732c-3.122,2.964 -6.803,5.254 -11.045,6.871c-4.241,1.616 -8.835,2.425 -13.784,2.425c-4.948,0 -9.542,-0.809 -13.783,-2.425c-4.242,-1.617 -7.909,-3.907 -11.001,-6.871c-3.093,-2.963 -5.523,-6.541 -7.29,-10.732c-1.767,-4.191 -2.65,-8.831 -2.65,-13.921zm-301.039,32.153l-12.016,-22.723l-0.619,0l0,22.723l-20.322,0l0,-63.586l26.949,0c3.063,0 6.112,0.314 9.145,0.943c3.034,0.628 5.744,1.736 8.129,3.323c2.386,1.586 4.315,3.712 5.788,6.376c1.472,2.665 2.209,6.002 2.209,10.014c0,3.892 -0.943,7.32 -2.828,10.283c-1.885,2.964 -4.594,5.254 -8.129,6.871l15.091,24.456l24.14,-62.266l22.355,0l24.387,63.586l-22.885,0l-3.269,-9.341l-19.881,0l-3.092,9.341l-45.152,0zm220.632,-63.586l21.206,0l0,63.586l-21.206,0l0,-63.586zm64.06,63.586l-21.029,0l0,-45.534l-15.375,0l0,-18.052l51.779,0l0,18.052l-15.375,0l0,45.534zm-110.802,-25.327l-0.176,0l0,25.327l-20.5,0l0,-63.586l20.411,0l0,23.44l0.177,0l16.7,-23.44l24.74,0l-23.503,29.098l24.652,34.488l-25.801,0l-16.7,-25.327zm311.995,-38.259l22.355,0l24.387,63.586l-22.885,0l-3.27,-9.341l-19.88,0l-3.093,9.341l-22.266,0l24.652,-63.586zm-87.829,27.661l0.972,35.925l-19.615,0l0,-63.586l27.479,0l11.31,34.217l0.442,0l9.808,-34.217l28.363,0l0,63.586l-20.411,0l0.619,-35.745l-0.531,-0.09l-11.663,35.835l-14.844,0l-11.487,-35.925l-0.442,0zm-74.663,3.772c0,2.096 0.31,4.012 0.928,5.748c0.619,1.737 1.473,3.233 2.562,4.491c1.09,1.257 2.401,2.23 3.932,2.919c1.532,0.688 3.181,1.032 4.948,1.032c1.768,0 3.402,-0.344 4.904,-1.032c1.502,-0.689 2.813,-1.662 3.932,-2.919c1.12,-1.258 1.988,-2.754 2.607,-4.491c0.618,-1.736 0.928,-3.652 0.928,-5.748c0,-2.035 -0.31,-3.906 -0.928,-5.613c-0.619,-1.706 -1.487,-3.143 -2.607,-4.311c-1.119,-1.167 -2.43,-2.08 -3.932,-2.739c-1.502,-0.659 -3.136,-0.988 -4.904,-0.988c-1.767,0 -3.416,0.329 -4.948,0.988c-1.531,0.659 -2.842,1.572 -3.932,2.739c-1.089,1.168 -1.943,2.605 -2.562,4.311c-0.618,1.707 -0.928,3.578 -0.928,5.613zm173.36,-9.25l-5.125,15.717l10.161,0l-5.036,-15.717zm-438.347,0l-5.125,15.717l10.161,0l-5.036,-15.717zm-71.218,4.67l4.153,0c0.707,0 1.488,-0.06 2.342,-0.18c0.854,-0.119 1.649,-0.374 2.385,-0.763c0.737,-0.389 1.355,-0.928 1.856,-1.617c0.501,-0.688 0.751,-1.601 0.751,-2.739c0,-1.137 -0.206,-2.036 -0.618,-2.694c-0.413,-0.659 -0.943,-1.153 -1.591,-1.482c-0.648,-0.329 -1.355,-0.539 -2.12,-0.629c-0.766,-0.09 -1.473,-0.134 -2.121,-0.134l-5.037,0l0,10.238z"/>
   </g>
  </g>
 </g>
</svg>